<svg width="50" height="38" viewBox="0 0 50 38" fill="none" xmlns="http://www.w3.org/2000/svg">
<path fill-rule="evenodd" clip-rule="evenodd" d="M1.83058 1.83058C3.00269 0.65848 4.5924 0 6.25 0H43.75C45.4076 0 46.9973 0.65848 48.1694 1.83058C49.3415 3.00268 50 4.5924 50 6.25V31.25C50 32.9076 49.3415 34.4973 48.1694 35.6694C46.9973 36.8415 45.4076 37.5 43.75 37.5H6.25C4.5924 37.5 3.00269 36.8415 1.83058 35.6694C0.65848 34.4973 0 32.9076 0 31.25V6.25C0 4.5924 0.65848 3.00268 1.83058 1.83058ZM40.0423 3.125C40.0145 3.24648 40 3.3724 40 3.5V6.5C40 6.89782 40.1405 7.27936 40.3905 7.56066C40.6406 7.84196 40.9797 8 41.3333 8H46.6667C46.7369 8 46.8065 7.99377 46.875 7.98158V21.875H3.125V6.25C3.125 5.4212 3.45424 4.62634 4.04029 4.04029C4.62634 3.45424 5.4212 3.125 6.25 3.125H40.0423ZM6.25 34.375H43.75C44.5788 34.375 45.3737 34.0458 45.9597 33.4597C46.5458 32.8737 46.875 32.0788 46.875 31.25V28.125H3.125V31.25C3.125 32.0788 3.45424 32.8737 4.04029 33.4597C4.62634 34.0458 5.4212 34.375 6.25 34.375Z" fill="#0E0E0D"/>
</svg>
