<svg width="50" height="50" viewBox="0 0 50 50" fill="none" xmlns="http://www.w3.org/2000/svg">
<path fill-rule="evenodd" clip-rule="evenodd" d="M3.125 0C2.2962 0 1.50134 0.32924 0.915291 0.915291C0.32924 1.50134 0 2.2962 0 3.125V28.125C0 28.9538 0.32924 29.7487 0.915291 30.3347C1.50134 30.9208 2.2962 31.25 3.125 31.25H15.8844C16.0656 30.175 16.3375 29.1313 16.6906 28.125H9.375C9.375 26.4674 8.71652 24.8777 7.54442 23.7056C6.37232 22.5335 4.7826 21.875 3.125 21.875V9.375C4.7826 9.375 6.37232 8.71652 7.54442 7.54442C8.71652 6.37232 9.375 4.7826 9.375 3.125H40.625C40.625 4.7826 41.2835 6.37232 42.4556 7.54442C43.6277 8.71652 45.2174 9.375 46.875 9.375V20.4C48.0625 21.4625 49.1156 22.675 50 24.0063V3.125C50 2.2962 49.6708 1.50134 49.0847 0.915291C48.4987 0.32924 47.7038 0 46.875 0H3.125ZM43.2138 43.2138C40.8696 45.558 37.6902 46.875 34.375 46.875C31.0598 46.875 27.8804 45.558 25.5362 43.2138C23.192 40.8696 21.875 37.6902 21.875 34.375C21.875 31.0598 23.192 27.8804 25.5362 25.5362C27.8804 23.192 31.0598 21.875 34.375 21.875C37.6902 21.875 40.8696 23.192 43.2138 25.5362C45.558 27.8804 46.875 31.0598 46.875 34.375C46.875 37.6902 45.558 40.8696 43.2138 43.2138ZM45.4235 45.4235C48.3538 42.4933 50 38.519 50 34.375C50 30.231 48.3538 26.2567 45.4235 23.3265C42.4933 20.3962 38.519 18.75 34.375 18.75C30.231 18.75 26.2567 20.3962 23.3265 23.3265C20.3962 26.2567 18.75 30.231 18.75 34.375C18.75 38.519 20.3962 42.4933 23.3265 45.4235C26.2567 48.3538 30.231 50 34.375 50C38.519 50 42.4933 48.3538 45.4235 45.4235ZM33.7532 40.8125C31.1126 40.6375 29.6407 39.1875 29.4938 37.325H31.5782C31.7563 38.2406 32.5532 38.9031 33.7532 39.0844V35.1094L32.9782 34.9188C31.0126 34.4625 29.8313 33.3438 29.8313 31.5875C29.8313 29.6 31.4188 28.1969 33.7532 27.9688V26.5625H34.9251V27.9344C37.3907 28.0875 38.9313 29.4906 39.0782 31.2875H37.022C36.8438 30.4 36.1001 29.7594 34.9251 29.625V33.375L35.8501 33.5938C38.0376 34.1063 39.2563 35.1 39.2563 37.0312C39.2563 39.15 37.6595 40.6125 34.9251 40.8031V42.1875H33.7532V40.8125ZM31.9657 31.4625C31.9657 32.2812 32.5907 32.8281 33.7438 33.0938H33.7532V29.6562C32.6407 29.8562 31.9657 30.5437 31.9657 31.4625ZM37.1407 37.2031C37.1407 36.275 36.497 35.75 35.0938 35.425L34.9251 35.3875V39.1219C36.3376 38.9875 37.1407 38.2625 37.1407 37.2031ZM31.25 15.6252L31.2437 15.8846C27.568 16.5051 24.1617 18.2104 21.4625 20.7814C20.5752 20.1723 19.8603 19.3443 19.3869 18.3777C18.9136 17.4111 18.6978 16.3386 18.7607 15.2642C18.8235 14.1898 19.1627 13.1497 19.7454 12.2449C20.3281 11.34 21.1347 10.601 22.0869 10.0993C23.0391 9.59767 24.1047 9.35042 25.1806 9.38152C26.2564 9.41261 27.306 9.721 28.2276 10.2768C29.1493 10.8326 29.9118 11.617 30.4413 12.554C30.9708 13.491 31.2494 14.5489 31.25 15.6252Z" fill="#0E0E0D"/>
</svg>
