<svg width="30" height="30" viewBox="0 0 30 30" fill="none" xmlns="http://www.w3.org/2000/svg">
<path fill-rule="evenodd" clip-rule="evenodd" d="M22.5 0H7.5C3.35786 0 0 3.35786 0 7.5V22.5C0 26.6421 3.35786 30 7.5 30H22.5C26.6421 30 30 26.6421 30 22.5V7.5C30 3.35786 26.6421 0 22.5 0ZM15.725 10.4838C14.7887 10.3449 13.8325 10.5048 12.9923 10.9408C12.1522 11.3767 11.4709 12.0665 11.0453 12.9119C10.6198 13.7574 10.4717 14.7155 10.6221 15.65C10.7724 16.5845 11.2136 17.4478 11.8829 18.1171C12.5522 18.7864 13.4155 19.2276 14.35 19.3779C15.2845 19.5283 16.2426 19.3802 17.0881 18.9546C17.9335 18.5291 18.6233 17.8478 19.0592 17.0077C19.4951 16.1675 19.6551 15.2113 19.5162 14.275C19.3746 13.32 18.9296 12.4358 18.2469 11.7531C17.5642 11.0704 16.68 10.6254 15.725 10.4838ZM11.6106 8.27792C13.0109 7.55135 14.6046 7.28482 16.165 7.51621C17.7568 7.75225 19.2304 8.49396 20.3682 9.63179C21.506 10.7696 22.2477 12.2432 22.4838 13.835C22.7152 15.3954 22.4486 16.9891 21.7221 18.3894C20.9955 19.7896 19.8459 20.9251 18.4368 21.6343C17.0277 22.3436 15.4309 22.5905 13.8734 22.3398C12.3159 22.0892 10.8771 21.3539 9.7616 20.2384C8.64612 19.1229 7.91078 17.6841 7.66016 16.1266C7.40953 14.5691 7.6564 12.9723 8.36564 11.5632C9.07488 10.1541 10.2104 9.00448 11.6106 8.27792ZM23.25 5.24999C22.4216 5.24999 21.75 5.92156 21.75 6.74999C21.75 7.57841 22.4216 8.24999 23.25 8.24999H23.265C24.0934 8.24999 24.765 7.57841 24.765 6.74999C24.765 5.92156 24.0934 5.24999 23.265 5.24999H23.25Z" fill="#0E0E0D"/>
</svg>
