<svg width="50" height="46" viewBox="0 0 50 46" fill="none" xmlns="http://www.w3.org/2000/svg">
<path d="M25 0C38.7844 0 50 8.69788 50 19.391C50 23.6713 48.2656 27.5244 44.6406 31.3207C39.3969 37.0914 27.6687 44.1196 25 45.1949C22.4062 46.2403 22.7062 44.6065 22.825 43.9613L22.8344 43.9076L23.1906 41.8615C23.275 41.2522 23.3625 40.3054 23.1094 39.702C22.8281 39.0359 21.7219 38.6894 20.9094 38.5222C8.89375 37.0078 0 28.976 0 19.391C0 8.69788 11.2188 0 25 0ZM15.6937 22.9574H10.9281V14.6896C10.9281 14.5666 10.8772 14.4485 10.7864 14.3612C10.6957 14.2739 10.5725 14.2245 10.4438 14.2237H8.6875C8.62348 14.2237 8.56009 14.2357 8.50094 14.2591C8.4418 14.2825 8.38805 14.3169 8.34279 14.3601C8.29752 14.4034 8.26161 14.4548 8.23711 14.5113C8.21261 14.5678 8.2 14.6284 8.2 14.6896V25.102C8.2 25.2245 8.25313 25.3409 8.3375 25.4216V25.4246L8.34375 25.4305L8.35 25.4365C8.44063 25.5198 8.56176 25.5659 8.6875 25.565H15.6937C15.9625 25.565 16.1781 25.3559 16.1781 25.099V23.4263C16.1785 23.3651 16.1663 23.3045 16.1422 23.2478C16.1181 23.1911 16.0825 23.1395 16.0376 23.096C15.9926 23.0524 15.9391 23.0178 15.8801 22.994C15.8211 22.9702 15.7578 22.9578 15.6937 22.9574ZM18.1656 14.2237C18.0363 14.2237 17.9123 14.2728 17.8209 14.3601C17.7295 14.4475 17.6781 14.566 17.6781 14.6896V25.102C17.6781 25.3589 17.8969 25.565 18.1656 25.565H19.9219C20.1906 25.565 20.4063 25.3559 20.4063 25.102V14.6896C20.4063 14.5666 20.3553 14.4485 20.2646 14.3612C20.1738 14.2739 20.0506 14.2245 19.9219 14.2237H18.1656ZM30.2375 14.2237C30.1082 14.2237 29.9842 14.2728 29.8928 14.3601C29.8014 14.4475 29.75 14.566 29.75 14.6896V20.8725L24.7594 14.4327C24.7468 14.4171 24.7332 14.4021 24.7188 14.3879V14.385C24.7089 14.3745 24.6984 14.3645 24.6875 14.3551L24.6781 14.3461C24.6674 14.3363 24.6559 14.3273 24.6437 14.3192H24.6406L24.625 14.3073L24.6156 14.3013C24.6107 14.2978 24.6055 14.2948 24.6 14.2924L24.575 14.2774H24.5688L24.5594 14.2715L24.5281 14.2595L24.5156 14.2535C24.5054 14.25 24.495 14.247 24.4844 14.2446H24.4781L24.4687 14.2416L24.4406 14.2356H24.4219L24.4125 14.2326H24.4L24.3938 14.2296H22.6C22.4712 14.2296 22.3477 14.2783 22.2564 14.3651C22.1651 14.4518 22.1133 14.5695 22.1125 14.6926V25.105C22.1125 25.3618 22.3312 25.5679 22.6 25.5679H24.35C24.6219 25.5679 24.8406 25.3589 24.8406 25.105V18.9221L29.8406 25.3738C29.8739 25.4182 29.9151 25.4567 29.9625 25.4873L29.9656 25.4903L29.9969 25.5082L30.0094 25.5142C30.0174 25.5187 30.0258 25.5227 30.0344 25.5261L30.0563 25.5351L30.0719 25.5411C30.0822 25.5444 30.0926 25.5473 30.1031 25.55H30.1125C30.1532 25.5612 30.1952 25.5672 30.2375 25.5679H31.9875C32.2594 25.5679 32.4781 25.3589 32.4781 25.105V14.6896C32.4781 14.566 32.4268 14.4475 32.3353 14.3601C32.2439 14.2728 32.1199 14.2237 31.9906 14.2237H30.2375ZM42.1594 16.3653V14.6926C42.1598 14.6314 42.1476 14.5707 42.1235 14.5141C42.0993 14.4574 42.0638 14.4058 42.0188 14.3622C41.9738 14.3187 41.9203 14.2841 41.8613 14.2603C41.8023 14.2365 41.739 14.2241 41.675 14.2237H34.6687C34.5426 14.2238 34.4216 14.271 34.3312 14.3551H34.3281L34.325 14.3611L34.3187 14.37C34.2315 14.4556 34.1822 14.5701 34.1812 14.6896V25.102C34.1812 25.2245 34.2344 25.3409 34.3187 25.4216L34.325 25.4305L34.3312 25.4365C34.4221 25.5196 34.5431 25.5656 34.6687 25.565H41.675C41.9438 25.565 42.1594 25.3559 42.1594 25.099V23.4263C42.1598 23.3651 42.1476 23.3045 42.1235 23.2478C42.0993 23.1911 42.0638 23.1395 42.0188 23.096C41.9738 23.0524 41.9203 23.0178 41.8613 22.994C41.8023 22.9702 41.739 22.9578 41.675 22.9574H36.9063V21.1981H41.6719C41.9406 21.1981 42.1562 20.989 42.1562 20.7321V19.0595C42.1567 18.9983 42.1445 18.9376 42.1203 18.8809C42.0962 18.8242 42.0607 18.7727 42.0157 18.7291C41.9707 18.6856 41.9172 18.6509 41.8582 18.6271C41.7992 18.6034 41.7359 18.5909 41.6719 18.5905H36.9063V16.8312H41.6719C41.9406 16.8312 42.1562 16.6222 42.1562 16.3653H42.1594Z" fill="#0D0E0D"/>
</svg>
