<svg width="32" height="32" viewBox="0 0 32 32" fill="none" xmlns="http://www.w3.org/2000/svg">
<path fill-rule="evenodd" clip-rule="evenodd" d="M12.9792 2.45166C12.9792 1.62323 12.3077 0.95166 11.4792 0.95166H5.45784C4.26152 0.95166 3.11421 1.42689 2.26829 2.27281C1.42237 3.11874 0.947134 4.26605 0.947134 5.46236V26.5373C0.947134 27.7336 1.42237 28.8809 2.26829 29.7268C3.11421 30.5728 4.26152 31.048 5.45784 31.048H11.4792C12.3077 31.048 12.9792 30.3764 12.9792 29.548C12.9792 28.7196 12.3077 28.048 11.4792 28.048H5.45784C5.05717 28.048 4.67292 27.8888 4.38961 27.6055C4.1063 27.3222 3.94713 26.938 3.94713 26.5373V5.46236C3.94713 5.0617 4.1063 4.67745 4.38961 4.39413C4.67292 4.11082 5.05717 3.95166 5.45784 3.95166H11.4792C12.3077 3.95166 12.9792 3.28009 12.9792 2.45166ZM20.4543 6.9105C21.04 6.32471 21.9898 6.32471 22.5756 6.9105L30.6041 14.939C31.1899 15.5248 31.1899 16.4746 30.6041 17.0604L22.5756 25.0889C21.9898 25.6747 21.04 25.6747 20.4543 25.0889C19.8685 24.5031 19.8685 23.5534 20.4543 22.9676L25.9221 17.4997H9.9739C9.14547 17.4997 8.4739 16.8281 8.4739 15.9997C8.4739 15.1713 9.14547 14.4997 9.9739 14.4997H25.9221L20.4543 9.03182C19.8685 8.44603 19.8685 7.49629 20.4543 6.9105Z" fill="#fff"/>
</svg>
