<svg width="235" height="50" viewBox="0 0 235 50" fill="none" xmlns="http://www.w3.org/2000/svg">
<path fill-rule="evenodd" clip-rule="evenodd" d="M208.318 11.2502H216.091C215.832 9.56607 216.441 6.27547 220.949 6.5864C226.585 6.97505 226.419 9.86089 225.419 10.8614C225.03 11.2502 214.018 17.7277 208.318 20.5778V26.9906H234.552V20.5778H222.504C226.131 18.6994 233.503 14.2041 233.969 11.2502C234.435 8.29641 234.163 6.91025 233.969 6.5864C233.516 4.90221 231.443 1.3395 226.779 0.562199C222.068 -0.222935 219.388 0.00683843 218.019 0.124111C217.694 0.151968 217.444 0.173477 217.257 0.173528C216.674 0.173687 208.318 1.14532 208.318 11.2502ZM1.16596 17.273L13.7972 18.439C16.1939 12.6092 23.8244 1.10616 39.0596 0.173395C54.2948 -0.759372 56.7433 12.6082 54.8001 18.439C52.8568 24.2701 42.402 34.1018 23.9022 31.459C23.1249 32.7545 22.0755 38.7268 22.5419 49.1427H9.522C9.2629 44.4789 9.01675 34.4128 10.105 31.459L0 30.0987L1.16596 17.273ZM27.5944 19.2563C29.4081 17.2482 34.2015 13.3099 38.8653 13.6208C39.9017 13.6208 41.3915 14.2039 40.0313 15.5642C37.6993 17.8961 35.5618 19.2563 27.5944 19.2563ZM66.2655 20.7725L36.3392 44.0916C34.2012 47.0064 36.3394 49.144 37.8938 49.144H66.2655V42.1482C68.2088 35.5411 74.0386 38.2617 74.6216 42.1482V49.144C80.8304 49.043 92.646 49.0994 98.8919 49.1292H98.8921H98.8925H98.8927C100.661 49.1377 101.983 49.144 102.605 49.144C104.742 49.144 106.491 45.8404 104.742 44.0916C103.876 43.2258 77.3033 23.1044 74.0386 20.7725C70.7739 18.4405 67.4963 19.8008 66.2655 20.7725ZM126.896 0.756481C115.703 2.15563 111.738 12.0922 111.155 16.8856C110.518 19.8004 108.24 34.7637 109.989 42.1481C111.738 49.5325 115.625 50.8928 119.511 49.5325C122.621 48.4443 122.102 41.1117 121.649 38.2616C121.43 36.8853 120.767 35.3677 120.118 33.8847L120.118 33.8846C118.936 31.1799 117.804 28.5907 119.511 27.185C121.682 25.3976 123.433 29.3976 125.426 33.9501L125.426 33.9502C126.466 36.3271 127.573 38.8547 128.839 40.7878C131.793 45.2962 137.066 48.4961 139.333 49.5325C143.154 50.6337 151.342 50.4264 153.519 40.7878C155.695 31.1492 142.118 28.61 135.057 28.5452C132.337 28.6748 126.896 28.3121 126.896 25.8247C126.896 22.7155 134.28 22.5211 139.333 22.5211C144.385 22.5211 152.353 18.6346 152.158 12.6105C152.003 7.79117 148.207 4.38393 146.328 3.28273C144.515 1.85766 138.089 -0.642669 126.896 0.756481ZM124.788 12.3932C124.205 9.4793 132.367 7.92463 133.921 11.0329C135.087 13.3649 124.788 14.9195 124.788 12.3932ZM179.363 1.53371H158.959V16.6912H161.68V35.3465H158.959V49.7267H179.363V35.3465H176.254L180.335 31.8487L184.222 35.3465H181.501V49.7267H201.128V35.3465H198.213L188.691 26.4075L198.213 16.6912H201.128V1.53371H181.501V16.6912H184.222L180.335 20.772L176.254 16.6912H179.363V1.53371Z" fill="#B3E24D"/>
</svg>
