<svg width="282" height="61" viewBox="0 0 282 61" fill="none" xmlns="http://www.w3.org/2000/svg">
<path fill-rule="evenodd" clip-rule="evenodd" d="M1.40182 20.7669L16.5882 22.1687C19.4697 15.1596 28.6439 1.32961 46.961 0.208152C65.2781 -0.913305 68.222 15.1584 65.8856 22.1687C63.5492 29.1794 50.9796 41 28.7373 37.8225C27.8028 39.3801 26.5411 46.5605 27.1019 59.0835H11.4482C11.1367 53.4762 10.8407 41.3738 12.1491 37.8225L0 36.1871L1.40182 20.7669ZM33.1775 23.1519C35.3581 20.7376 41.1211 16.0026 46.7284 16.3764C47.9745 16.3764 49.7657 17.0774 48.1302 18.7129C45.3266 21.5165 42.7566 23.1519 33.1775 23.1519Z" fill="#0E0E0D"/>
<path d="M79.6706 24.9738L43.6905 53.0102C41.12 56.5146 43.6907 59.0846 45.5596 59.0846H79.6706V50.6737C82.007 42.73 89.0161 46.0009 89.717 50.6737V59.0846C99.2961 58.9288 119.976 59.0846 123.361 59.0846C125.931 59.0846 128.033 55.1128 125.931 53.0102C124.89 51.9693 92.9412 27.7775 89.0161 24.9738C85.091 22.1702 81.1503 23.8056 79.6706 24.9738Z" fill="#0E0E0D"/>
<path fill-rule="evenodd" clip-rule="evenodd" d="M133.639 20.3029C134.34 14.5399 139.106 2.59322 152.564 0.911036C166.021 -0.771149 173.747 2.23498 175.928 3.94832C178.186 5.27229 182.75 9.36878 182.937 15.163C183.17 22.4057 173.591 27.0785 167.517 27.0785C161.442 27.0785 152.564 27.3121 152.564 31.0503C152.564 34.0408 159.106 34.477 162.377 34.3212C170.866 34.3991 187.189 37.4519 184.572 49.0403C181.955 60.6287 172.112 60.8779 167.517 59.554C164.791 58.3079 158.452 54.4607 154.9 49.0403C153.378 46.7162 152.047 43.6772 150.796 40.8194C148.4 35.346 146.295 30.5368 143.686 32.6857C141.634 34.3758 142.994 37.4889 144.416 40.7407C145.195 42.5236 145.992 44.3483 146.256 46.003C146.801 49.4297 147.424 58.2456 143.686 59.554C139.013 61.1894 134.34 59.554 132.238 50.6758C130.135 41.7976 132.873 23.8074 133.639 20.3029ZM150.029 14.9023C149.328 11.399 159.141 9.52981 161.01 13.2668C162.411 16.0706 150.029 17.9397 150.029 14.9023Z" fill="#0E0E0D"/>
<path d="M215.647 1.8457H191.115V20.0694H194.386V42.4985H191.115V59.7876H215.647V42.4985H211.909L216.815 38.293L221.488 42.4985H218.217V59.7876H241.814V42.4985H238.31L226.862 31.7512L238.31 20.0694H241.814V1.8457H218.217V20.0694H221.488L216.815 24.9757L211.909 20.0694H215.647V1.8457Z" fill="#0E0E0D"/>
<path d="M259.804 13.526H250.459C250.459 1.37698 260.505 0.208794 261.206 0.208603C262.374 0.208284 265.645 -0.492286 272.654 0.675898C278.262 1.61045 280.754 5.89385 281.299 7.91873C281.533 8.30809 281.86 9.97466 281.299 13.526C280.738 17.0774 271.876 22.4821 267.514 24.7405H282V32.4505H250.459V24.7405C257.312 21.3138 270.552 13.526 271.019 13.0586C272.222 11.8556 272.421 8.386 265.645 7.91873C260.225 7.54491 259.493 11.5012 259.804 13.526Z" fill="#0E0E0D"/>
</svg>
